<mxfile host="app.diagrams.net" modified="2020-11-16T09:14:27.520Z" agent="5.0 (Macintosh; Intel Mac OS X 10_15_6) AppleWebKit/537.36 (KHTML, like Gecko) Chrome/86.0.4240.198 Safari/537.36" etag="XsQSdqWb-WQgBx4365rU" version="13.9.8" type="github">
  <diagram id="kgpKYQtTHZ0yAKxKKP6v" name="Page-1">
    <mxGraphModel dx="1395" dy="1749" grid="1" gridSize="10" guides="1" tooltips="1" connect="1" arrows="1" fold="1" page="1" pageScale="1" pageWidth="850" pageHeight="1100" math="0" shadow="0">
      <root>
        <mxCell id="0" />
        <mxCell id="1" parent="0" />
        <mxCell id="_VWqm0PzK80fMtdGOKL--1" value="GameWindow" style="html=1;overflow=block;whiteSpace=wrap;swimlane;childLayout=stackLayout;horizontal=1;horizontalStack=0;resizeParent=1;resizeParentMax=0;resizeLast=0;collapsible=0;marginBottom=0;swimlaneFillColor=#ffffff;startSize=25;whiteSpace=wrap;fontSize=11;fontColor=#333333;align=center;whiteSpace=wrap;align=left;spacing=0;strokeColor=#333333;strokeOpacity=100;fillOpacity=100;fillColor=#ffffff;" vertex="1" zOrder="835.3333333333331" parent="1">
          <mxGeometry x="800" y="10" width="310" height="440.8" as="geometry" />
        </mxCell>
        <mxCell id="_VWqm0PzK80fMtdGOKL--2" value="&lt;div style=&quot;display: flex; justify-content: center; text-align: center; align-items: baseline; font-size: 0; line-height: 1;&quot;&gt;&lt;span&gt;&lt;span style=&quot;font-size:11px;color:#333333;&quot;&gt;model: GameEngine&#xa;&lt;/span&gt;&lt;/span&gt;&lt;/div&gt;&lt;div style=&quot;display: flex; justify-content: center; text-align: center; align-items: baseline; font-size: 0; line-height: 1;&quot;&gt;&lt;span&gt;&lt;span style=&quot;font-size:11px;color:#333333;&quot;&gt;&lt;span style=&quot;font-size:11px;color:#333333;&quot;&gt;model: GameEngine&#xa;&#xa;&lt;/span&gt;&lt;span style=&quot;font-size:11px;color:#333333;text-decoration: underline;&quot;&gt;&lt;/span&gt;&lt;/span&gt;&lt;/span&gt;&lt;/div&gt;&lt;div style=&quot;display: flex; justify-content: center; text-align: center; align-items: baseline; font-size: 0; line-height: 1;&quot;&gt;&lt;span&gt;&lt;span style=&quot;font-size:11px;color:#333333;text-decoration: underline;&quot;&gt;VIEWPORT_MARGIN_VERTICAL = 130{read only}: double&#xa;&lt;/span&gt;&lt;/span&gt;&lt;/div&gt;&lt;div style=&quot;display: flex; justify-content: center; text-align: center; align-items: baseline; font-size: 0; line-height: 1;&quot;&gt;&lt;span&gt;&lt;span style=&quot;font-size:11px;color:#333333;text-decoration: underline;&quot;&gt;VIEWPORT_MARGIN= 130{read only}: double&#xa;&lt;/span&gt;&lt;span style=&quot;font-size:11px;color:#333333;&quot;&gt;&lt;/span&gt;&lt;/span&gt;&lt;/div&gt;&lt;div style=&quot;display: flex; justify-content: center; text-align: center; align-items: baseline; font-size: 0; line-height: 1;&quot;&gt;&lt;span&gt;&lt;span style=&quot;font-size:11px;color:#333333;&quot;&gt;width: int{read only}&#xa;&lt;/span&gt;&lt;/span&gt;&lt;/div&gt;&lt;div style=&quot;display: flex; justify-content: center; text-align: center; align-items: baseline; font-size: 0; line-height: 1;&quot;&gt;&lt;span&gt;&lt;span style=&quot;font-size:11px;color:#333333;&quot;&gt;height: int{read only}&#xa;&lt;/span&gt;&lt;/span&gt;&lt;/div&gt;&lt;div style=&quot;display: flex; justify-content: center; text-align: center; align-items: baseline; font-size: 0; line-height: 1;&quot;&gt;&lt;span&gt;&lt;span style=&quot;font-size:11px;color:#333333;&quot;&gt;scene: Scene&#xa;&lt;/span&gt;&lt;/span&gt;&lt;/div&gt;&lt;div style=&quot;display: flex; justify-content: center; text-align: center; align-items: baseline; font-size: 0; line-height: 1;&quot;&gt;&lt;span&gt;&lt;span style=&quot;font-size:11px;color:#333333;&quot;&gt;pane: Pane&#xa;&lt;/span&gt;&lt;/span&gt;&lt;/div&gt;&lt;div style=&quot;display: flex; justify-content: center; text-align: center; align-items: baseline; font-size: 0; line-height: 1;&quot;&gt;&lt;span&gt;&lt;span style=&quot;font-size:11px;color:#333333;&quot;&gt;entityViews: List&amp;lt;EntityView&amp;gt;&#xa;&lt;/span&gt;&lt;/span&gt;&lt;/div&gt;&lt;div style=&quot;display: flex; justify-content: center; text-align: center; align-items: baseline; font-size: 0; line-height: 1;&quot;&gt;&lt;span&gt;&lt;span style=&quot;font-size:11px;color:#333333;&quot;&gt;backgroundDrawer: BackgroundDrawer&#xa;&lt;/span&gt;&lt;/span&gt;&lt;/div&gt;&lt;div style=&quot;display: flex; justify-content: center; text-align: center; align-items: baseline; font-size: 0; line-height: 1;&quot;&gt;&lt;span&gt;&lt;span style=&quot;font-size:11px;color:#333333;&quot;&gt;xViewportOffset = 0.0: double&#xa;&lt;/span&gt;&lt;/span&gt;&lt;/div&gt;&lt;div style=&quot;display: flex; justify-content: center; text-align: center; align-items: baseline; font-size: 0; line-height: 1;&quot;&gt;&lt;span&gt;&lt;span style=&quot;font-size:11px;color:#333333;&quot;&gt;yViewportOffset = 0.0&#xa;&lt;/span&gt;&lt;/span&gt;&lt;/div&gt;&lt;div style=&quot;display: flex; justify-content: center; text-align: center; align-items: baseline; font-size: 0; line-height: 1;&quot;&gt;&lt;span&gt;&lt;span style=&quot;font-size:11px;color:#333333;&quot;&gt;lifeText : Text&#xa;&lt;/span&gt;&lt;/span&gt;&lt;/div&gt;&lt;div style=&quot;display: flex; justify-content: center; text-align: center; align-items: baseline; font-size: 0; line-height: 1;&quot;&gt;&lt;span&gt;&lt;span style=&quot;font-size:11px;color:#333333;&quot;&gt;totalScoreText: Text&#xa;&lt;/span&gt;&lt;/span&gt;&lt;/div&gt;&lt;div style=&quot;display: flex; justify-content: center; text-align: center; align-items: baseline; font-size: 0; line-height: 1;&quot;&gt;&lt;span&gt;&lt;span style=&quot;font-size:11px;color:#333333;&quot;&gt;overText: Text&#xa;&lt;/span&gt;&lt;/span&gt;&lt;/div&gt;&lt;div style=&quot;display: flex; justify-content: center; text-align: center; align-items: baseline; font-size: 0; line-height: 1;&quot;&gt;&lt;span&gt;&lt;span style=&quot;font-size:11px;color:#333333;&quot;&gt;levelScoreText: Text&#xa;&lt;/span&gt;&lt;/span&gt;&lt;/div&gt;&lt;div style=&quot;display: flex; justify-content: center; text-align: center; align-items: baseline; font-size: 0; line-height: 1;&quot;&gt;&lt;span&gt;&lt;span style=&quot;font-size:11px;color:#333333;&quot;&gt;t Timeline&#xa;&lt;/span&gt;&lt;/span&gt;&lt;/div&gt;&lt;div style=&quot;display: flex; justify-content: center; text-align: center; align-items: baseline; font-size: 0; line-height: 1;&quot;&gt;&lt;span&gt;&lt;/span&gt;&lt;/div&gt;" style="part=1;html=1;resizeHeight=0;strokeColor=none;fillColor=none;align=left;verticalAlign=middle;spacingLeft=4;spacingRight=4;overflow=hidden;rotatable=0;points=[[0,0.5],[1,0.5]];portConstraint=eastwest;swimlaneFillColor=#ffffff;strokeOpacity=100;fillOpacity=100;fontSize=11;fontColor=#333333;fontStyle=4;" vertex="1" parent="_VWqm0PzK80fMtdGOKL--1">
          <mxGeometry y="25" width="310" height="203" as="geometry" />
        </mxCell>
        <mxCell id="_VWqm0PzK80fMtdGOKL--3" value="" style="line;strokeWidth=1;fillColor=none;align=left;verticalAlign=middle;spacingTop=-1;spacingLeft=3;spacingRight=3;rotatable=0;labelPosition=right;points=[];portConstraint=eastwest;" vertex="1" parent="_VWqm0PzK80fMtdGOKL--1">
          <mxGeometry y="228" width="310" height="8" as="geometry" />
        </mxCell>
        <mxCell id="_VWqm0PzK80fMtdGOKL--4" value="&lt;div style=&quot;display: flex; justify-content: center; text-align: center; align-items: baseline; font-size: 0; line-height: 1;&quot;&gt;&lt;span&gt;&lt;span style=&quot;font-size:11px;color:#333333;&quot;&gt;update(levelTime: int, score: int, lives: int, priviousScore)&#xa;&lt;/span&gt;&lt;/span&gt;&lt;/div&gt;&lt;div style=&quot;display: flex; justify-content: center; text-align: center; align-items: baseline; font-size: 0; line-height: 1;&quot;&gt;&lt;span&gt;&lt;span style=&quot;font-size:11px;color:#333333;&quot;&gt;&#xa;&lt;/span&gt;&lt;/span&gt;&lt;/div&gt;&lt;div style=&quot;display: flex; justify-content: center; text-align: center; align-items: baseline; font-size: 0; line-height: 1;&quot;&gt;&lt;span&gt;&lt;span style=&quot;font-size:11px;color:#333333;&quot;&gt;run(): void&#xa;&lt;/span&gt;&lt;/span&gt;&lt;/div&gt;&lt;div style=&quot;display: flex; justify-content: center; text-align: center; align-items: baseline; font-size: 0; line-height: 1;&quot;&gt;&lt;span&gt;&lt;span style=&quot;font-size:11px;color:#333333;&quot;&gt;draw(): void&#xa;&lt;/span&gt;&lt;/span&gt;&lt;/div&gt;&lt;div style=&quot;display: flex; justify-content: center; text-align: center; align-items: baseline; font-size: 0; line-height: 1;&quot;&gt;&lt;span&gt;&lt;span style=&quot;font-size:11px;color:#333333;&quot;&gt;getScene(): Scene&#xa;&lt;/span&gt;&lt;/span&gt;&lt;/div&gt;&lt;div style=&quot;display: flex; justify-content: center; text-align: center; align-items: baseline; font-size: 0; line-height: 1;&quot;&gt;&lt;span&gt;&lt;span style=&quot;font-size:11px;color:#333333;&quot;&gt;stop(): void&#xa;&lt;/span&gt;&lt;/span&gt;&lt;/div&gt;&lt;div style=&quot;display: flex; justify-content: center; text-align: center; align-items: baseline; font-size: 0; line-height: 1;&quot;&gt;&lt;span&gt;&lt;span style=&quot;font-size:11px;color:#333333;&quot;&gt;drawBackground(): void&#xa;&lt;/span&gt;&lt;/span&gt;&lt;/div&gt;&lt;div style=&quot;display: flex; justify-content: center; text-align: center; align-items: baseline; font-size: 0; line-height: 1;&quot;&gt;&lt;span&gt;&lt;span style=&quot;font-size:11px;color:#333333;&quot;&gt;over(): void&#xa;&lt;/span&gt;&lt;/span&gt;&lt;/div&gt;&lt;div style=&quot;display: flex; justify-content: center; text-align: center; align-items: baseline; font-size: 0; line-height: 1;&quot;&gt;&lt;span&gt;&lt;span style=&quot;font-size:11px;color:#333333;&quot;&gt;&#xa;&lt;/span&gt;&lt;span style=&quot;font-size:11px;color:#c92d39;&quot;&gt;&lt;/span&gt;&lt;/span&gt;&lt;/div&gt;&lt;div style=&quot;display: flex; justify-content: center; text-align: center; align-items: baseline; font-size: 0; line-height: 1;&quot;&gt;&lt;span&gt;&lt;span style=&quot;font-size:11px;color:#c92d39;&quot;&gt;update(): void&lt;/span&gt;&lt;/span&gt;&lt;/div&gt;" style="part=1;html=1;resizeHeight=0;strokeColor=none;fillColor=none;align=left;verticalAlign=middle;spacingLeft=4;spacingRight=4;overflow=hidden;rotatable=0;points=[[0,0.5],[1,0.5]];portConstraint=eastwest;swimlaneFillColor=#ffffff;strokeOpacity=100;fillOpacity=100;fontSize=11;fontColor=#333333;" vertex="1" parent="_VWqm0PzK80fMtdGOKL--1">
          <mxGeometry y="236" width="310" height="204.8" as="geometry" />
        </mxCell>
        <mxCell id="_VWqm0PzK80fMtdGOKL--5" value="GameManager" style="html=1;overflow=block;whiteSpace=wrap;swimlane;childLayout=stackLayout;horizontal=1;horizontalStack=0;resizeParent=1;resizeParentMax=0;resizeLast=0;collapsible=0;marginBottom=0;swimlaneFillColor=#ffffff;startSize=25;whiteSpace=wrap;fontSize=11;fontColor=#333333;align=center;whiteSpace=wrap;align=left;spacing=0;strokeColor=#333333;strokeOpacity=100;fillOpacity=100;fillColor=#ffffff;" vertex="1" zOrder="837.3333333333331" parent="1">
          <mxGeometry x="425" width="228" height="507.4" as="geometry" />
        </mxCell>
        <mxCell id="_VWqm0PzK80fMtdGOKL--6" value="&lt;div style=&quot;display: flex; justify-content: center; text-align: center; align-items: baseline; font-size: 0; line-height: 1;&quot;&gt;&lt;span&gt;&lt;span style=&quot;font-size:11px;color:#c92d39;&quot;&gt;window: GameWindow&#xa;&lt;/span&gt;&lt;/span&gt;&lt;/div&gt;&lt;div style=&quot;display: flex; justify-content: center; text-align: center; align-items: baseline; font-size: 0; line-height: 1;&quot;&gt;&lt;span&gt;&lt;span style=&quot;font-size:11px;color:#c92d39;&quot;&gt;&#xa;&lt;/span&gt;&lt;span style=&quot;font-size:11px;color:#333333;&quot;&gt;&lt;/span&gt;&lt;/span&gt;&lt;/div&gt;&lt;div style=&quot;display: flex; justify-content: center; text-align: center; align-items: baseline; font-size: 0; line-height: 1;&quot;&gt;&lt;span&gt;&lt;span style=&quot;font-size:11px;color:#333333;&quot;&gt;level: Level&#xa;&lt;/span&gt;&lt;/span&gt;&lt;/div&gt;&lt;div style=&quot;display: flex; justify-content: center; text-align: center; align-items: baseline; font-size: 0; line-height: 1;&quot;&gt;&lt;span&gt;&lt;span style=&quot;font-size:11px;color:#333333;&quot;&gt;levelFileNames: List&amp;lt;String&amp;gt;&#xa;&lt;/span&gt;&lt;/span&gt;&lt;/div&gt;&lt;div style=&quot;display: flex; justify-content: center; text-align: center; align-items: baseline; font-size: 0; line-height: 1;&quot;&gt;&lt;span&gt;&lt;span style=&quot;font-size:11px;color:#333333;&quot;&gt;window: GameWindow&#xa;&lt;/span&gt;&lt;/span&gt;&lt;/div&gt;&lt;div style=&quot;display: flex; justify-content: center; text-align: center; align-items: baseline; font-size: 0; line-height: 1;&quot;&gt;&lt;span&gt;&lt;span style=&quot;font-size:11px;color:#333333;&quot;&gt;playerLives: int&#xa;&lt;/span&gt;&lt;/span&gt;&lt;/div&gt;&lt;div style=&quot;display: flex; justify-content: center; text-align: center; align-items: baseline; font-size: 0; line-height: 1;&quot;&gt;&lt;span&gt;&lt;span style=&quot;font-size:11px;color:#333333;&quot;&gt;totalScore: int&#xa;&lt;/span&gt;&lt;/span&gt;&lt;/div&gt;&lt;div style=&quot;display: flex; justify-content: center; text-align: center; align-items: baseline; font-size: 0; line-height: 1;&quot;&gt;&lt;span&gt;&lt;span style=&quot;font-size:11px;color:#333333;&quot;&gt;levelScore: int&#xa;&lt;/span&gt;&lt;/span&gt;&lt;/div&gt;&lt;div style=&quot;display: flex; justify-content: center; text-align: center; align-items: baseline; font-size: 0; line-height: 1;&quot;&gt;&lt;span&gt;&lt;span style=&quot;font-size:11px;color:#333333;&quot;&gt;allLevels: List&amp;lt;Level&amp;gt;&#xa;&lt;/span&gt;&lt;/span&gt;&lt;/div&gt;&lt;div style=&quot;display: flex; justify-content: center; text-align: center; align-items: baseline; font-size: 0; line-height: 1;&quot;&gt;&lt;span&gt;&lt;span style=&quot;font-size:11px;color:#333333;&quot;&gt;state: int&#xa;&lt;/span&gt;&lt;/span&gt;&lt;/div&gt;&lt;div style=&quot;display: flex; justify-content: center; text-align: center; align-items: baseline; font-size: 0; line-height: 1;&quot;&gt;&lt;span&gt;&lt;span style=&quot;font-size:11px;color:#333333;&quot;&gt;acturalTime: int&#xa;&lt;/span&gt;&lt;/span&gt;&lt;/div&gt;&lt;div style=&quot;display: flex; justify-content: center; text-align: center; align-items: baseline; font-size: 0; line-height: 1;&quot;&gt;&lt;span&gt;&lt;span style=&quot;font-size:11px;color:#333333;&quot;&gt;m: Memento&lt;/span&gt;&lt;/span&gt;&lt;/div&gt;" style="part=1;html=1;resizeHeight=0;strokeColor=none;fillColor=none;align=left;verticalAlign=middle;spacingLeft=4;spacingRight=4;overflow=hidden;rotatable=0;points=[[0,0.5],[1,0.5]];portConstraint=eastwest;swimlaneFillColor=#ffffff;strokeOpacity=100;fillOpacity=100;fontSize=11;fontColor=#c92d39;" vertex="1" parent="_VWqm0PzK80fMtdGOKL--5">
          <mxGeometry y="25" width="228" height="239" as="geometry" />
        </mxCell>
        <mxCell id="_VWqm0PzK80fMtdGOKL--7" value="" style="line;strokeWidth=1;fillColor=none;align=left;verticalAlign=middle;spacingTop=-1;spacingLeft=3;spacingRight=3;rotatable=0;labelPosition=right;points=[];portConstraint=eastwest;" vertex="1" parent="_VWqm0PzK80fMtdGOKL--5">
          <mxGeometry y="264" width="228" height="8" as="geometry" />
        </mxCell>
        <mxCell id="_VWqm0PzK80fMtdGOKL--8" value="&lt;div style=&quot;display: flex; justify-content: center; text-align: center; align-items: baseline; font-size: 0; line-height: 1;&quot;&gt;&lt;span&gt;&lt;span style=&quot;font-size:11px;color:#333333;&quot;&gt;getActuralTime(): int&#xa;&lt;/span&gt;&lt;/span&gt;&lt;/div&gt;&lt;div style=&quot;display: flex; justify-content: center; text-align: center; align-items: baseline; font-size: 0; line-height: 1;&quot;&gt;&lt;span&gt;&lt;span style=&quot;font-size:11px;color:#333333;&quot;&gt;setActuralTime(i: int): void&#xa;&lt;/span&gt;&lt;/span&gt;&lt;/div&gt;&lt;div style=&quot;display: flex; justify-content: center; text-align: center; align-items: baseline; font-size: 0; line-height: 1;&quot;&gt;&lt;span&gt;&lt;span style=&quot;font-size:11px;color:#333333;&quot;&gt;changeLevel(): void&#xa;&lt;/span&gt;&lt;/span&gt;&lt;/div&gt;&lt;div style=&quot;display: flex; justify-content: center; text-align: center; align-items: baseline; font-size: 0; line-height: 1;&quot;&gt;&lt;span&gt;&lt;span style=&quot;font-size:11px;color:#333333;&quot;&gt;addWindow(window: Gamewindow): void&#xa;&lt;/span&gt;&lt;/span&gt;&lt;/div&gt;&lt;div style=&quot;display: flex; justify-content: center; text-align: center; align-items: baseline; font-size: 0; line-height: 1;&quot;&gt;&lt;span&gt;&lt;span style=&quot;font-size:11px;color:#333333;&quot;&gt;getTargetTime(): int&#xa;&lt;/span&gt;&lt;/span&gt;&lt;/div&gt;&lt;div style=&quot;display: flex; justify-content: center; text-align: center; align-items: baseline; font-size: 0; line-height: 1;&quot;&gt;&lt;span&gt;&lt;span style=&quot;font-size:11px;color:#333333;&quot;&gt;save(): void&#xa;&lt;/span&gt;&lt;/span&gt;&lt;/div&gt;&lt;div style=&quot;display: flex; justify-content: center; text-align: center; align-items: baseline; font-size: 0; line-height: 1;&quot;&gt;&lt;span&gt;&lt;span style=&quot;font-size:11px;color:#333333;&quot;&gt;load(): void&#xa;&lt;/span&gt;&lt;/span&gt;&lt;/div&gt;&lt;div style=&quot;display: flex; justify-content: center; text-align: center; align-items: baseline; font-size: 0; line-height: 1;&quot;&gt;&lt;span&gt;&lt;span style=&quot;font-size:11px;color:#333333;&quot;&gt;update(content: String): void&#xa;&lt;/span&gt;&lt;/span&gt;&lt;/div&gt;&lt;div style=&quot;display: flex; justify-content: center; text-align: center; align-items: baseline; font-size: 0; line-height: 1;&quot;&gt;&lt;span&gt;&lt;span style=&quot;font-size:11px;color:#333333;&quot;&gt;getLives(): int&#xa;&lt;/span&gt;&lt;/span&gt;&lt;/div&gt;&lt;div style=&quot;display: flex; justify-content: center; text-align: center; align-items: baseline; font-size: 0; line-height: 1;&quot;&gt;&lt;span&gt;&lt;span style=&quot;font-size:11px;color:#333333;&quot;&gt;getLevelScore(): int&#xa;&lt;/span&gt;&lt;/span&gt;&lt;/div&gt;&lt;div style=&quot;display: flex; justify-content: center; text-align: center; align-items: baseline; font-size: 0; line-height: 1;&quot;&gt;&lt;span&gt;&lt;span style=&quot;font-size:11px;color:#333333;&quot;&gt;setLevelScore(score: int): void&#xa;&lt;/span&gt;&lt;/span&gt;&lt;/div&gt;&lt;div style=&quot;display: flex; justify-content: center; text-align: center; align-items: baseline; font-size: 0; line-height: 1;&quot;&gt;&lt;span&gt;&lt;span style=&quot;font-size:11px;color:#333333;&quot;&gt;getTotalScore(): int&#xa;&lt;/span&gt;&lt;/span&gt;&lt;/div&gt;&lt;div style=&quot;display: flex; justify-content: center; text-align: center; align-items: baseline; font-size: 0; line-height: 1;&quot;&gt;&lt;span&gt;&lt;span style=&quot;font-size:11px;color:#333333;&quot;&gt;setTotalScore(score: int): void&#xa;&lt;/span&gt;&lt;/span&gt;&lt;/div&gt;&lt;div style=&quot;display: flex; justify-content: center; text-align: center; align-items: baseline; font-size: 0; line-height: 1;&quot;&gt;&lt;span&gt;&lt;span style=&quot;font-size:11px;color:#333333;&quot;&gt;getCurrentLevel(): Level&#xa;&lt;/span&gt;&lt;/span&gt;&lt;/div&gt;&lt;div style=&quot;display: flex; justify-content: center; text-align: center; align-items: baseline; font-size: 0; line-height: 1;&quot;&gt;&lt;span&gt;&lt;span style=&quot;font-size:11px;color:#333333;&quot;&gt;jump(): boolean&#xa;&lt;/span&gt;&lt;/span&gt;&lt;/div&gt;&lt;div style=&quot;display: flex; justify-content: center; text-align: center; align-items: baseline; font-size: 0; line-height: 1;&quot;&gt;&lt;span&gt;&lt;span style=&quot;font-size:11px;color:#333333;&quot;&gt;moveLeft(): boolean&#xa;&lt;/span&gt;&lt;/span&gt;&lt;/div&gt;&lt;div style=&quot;display: flex; justify-content: center; text-align: center; align-items: baseline; font-size: 0; line-height: 1;&quot;&gt;&lt;span&gt;&lt;span style=&quot;font-size:11px;color:#333333;&quot;&gt;moveRight():boolean&#xa;&lt;/span&gt;&lt;/span&gt;&lt;/div&gt;&lt;div style=&quot;display: flex; justify-content: center; text-align: center; align-items: baseline; font-size: 0; line-height: 1;&quot;&gt;&lt;span&gt;&lt;span style=&quot;font-size:11px;color:#333333;&quot;&gt;stopMoving(): boolean&#xa;&lt;/span&gt;&lt;/span&gt;&lt;/div&gt;&lt;div style=&quot;display: flex; justify-content: center; text-align: center; align-items: baseline; font-size: 0; line-height: 1;&quot;&gt;&lt;span&gt;&lt;span style=&quot;font-size:11px;color:#333333;&quot;&gt;tick(): void&#xa;&lt;/span&gt;&lt;/span&gt;&lt;/div&gt;&lt;div style=&quot;display: flex; justify-content: center; text-align: center; align-items: baseline; font-size: 0; line-height: 1;&quot;&gt;&lt;span&gt;&lt;span style=&quot;font-size:11px;color:#333333;&quot;&gt;shoot(): void&#xa;&lt;/span&gt;&lt;/span&gt;&lt;/div&gt;&lt;div style=&quot;display: flex; justify-content: center; text-align: center; align-items: baseline; font-size: 0; line-height: 1;&quot;&gt;&lt;span&gt;&lt;span style=&quot;font-size:11px;color:#333333;&quot;&gt;reset(): void&#xa;&lt;/span&gt;&lt;/span&gt;&lt;/div&gt;&lt;div style=&quot;display: flex; justify-content: center; text-align: center; align-items: baseline; font-size: 0; line-height: 1;&quot;&gt;&lt;span&gt;&lt;span style=&quot;font-size:11px;color:#333333;&quot;&gt;readConfigFile(config: String): List&amp;lt;String&amp;gt;&lt;/span&gt;&lt;/span&gt;&lt;/div&gt;" style="part=1;html=1;resizeHeight=0;strokeColor=none;fillColor=none;align=left;verticalAlign=middle;spacingLeft=4;spacingRight=4;overflow=hidden;rotatable=0;points=[[0,0.5],[1,0.5]];portConstraint=eastwest;swimlaneFillColor=#ffffff;strokeOpacity=100;fillOpacity=100;fontSize=11;fontColor=#333333;" vertex="1" parent="_VWqm0PzK80fMtdGOKL--5">
          <mxGeometry y="272" width="228" height="235.4" as="geometry" />
        </mxCell>
        <mxCell id="_VWqm0PzK80fMtdGOKL--9" value="" style="endArrow=classic;html=1;exitX=1.002;exitY=0.943;exitDx=0;exitDy=0;exitPerimeter=0;entryX=0.014;entryY=0.375;entryDx=0;entryDy=0;entryPerimeter=0;" edge="1" parent="1" source="_VWqm0PzK80fMtdGOKL--6" target="_VWqm0PzK80fMtdGOKL--3">
          <mxGeometry width="50" height="50" relative="1" as="geometry">
            <mxPoint x="910" y="580" as="sourcePoint" />
            <mxPoint x="1040" y="580" as="targetPoint" />
          </mxGeometry>
        </mxCell>
        <mxCell id="_VWqm0PzK80fMtdGOKL--10" value="" style="endArrow=classic;html=1;entryX=1.007;entryY=0.468;entryDx=0;entryDy=0;entryPerimeter=0;exitX=-0.008;exitY=0.63;exitDx=0;exitDy=0;exitPerimeter=0;" edge="1" parent="1" source="_VWqm0PzK80fMtdGOKL--4" target="_VWqm0PzK80fMtdGOKL--8">
          <mxGeometry width="50" height="50" relative="1" as="geometry">
            <mxPoint x="940" y="740" as="sourcePoint" />
            <mxPoint x="990" y="690" as="targetPoint" />
          </mxGeometry>
        </mxCell>
        <mxCell id="_VWqm0PzK80fMtdGOKL--13" value="App" style="swimlane;fontStyle=1;align=center;verticalAlign=top;childLayout=stackLayout;horizontal=1;startSize=26;horizontalStack=0;resizeParent=1;resizeParentMax=0;resizeLast=0;collapsible=1;marginBottom=0;" vertex="1" parent="1">
          <mxGeometry x="490" y="-220" width="220" height="60" as="geometry" />
        </mxCell>
        <mxCell id="_VWqm0PzK80fMtdGOKL--15" value="" style="line;strokeWidth=1;fillColor=none;align=left;verticalAlign=middle;spacingTop=-1;spacingLeft=3;spacingRight=3;rotatable=0;labelPosition=right;points=[];portConstraint=eastwest;" vertex="1" parent="_VWqm0PzK80fMtdGOKL--13">
          <mxGeometry y="26" width="220" height="8" as="geometry" />
        </mxCell>
        <mxCell id="_VWqm0PzK80fMtdGOKL--16" value="start(primaryStage: Stage): void" style="text;strokeColor=none;fillColor=none;align=left;verticalAlign=top;spacingLeft=4;spacingRight=4;overflow=hidden;rotatable=0;points=[[0,0.5],[1,0.5]];portConstraint=eastwest;" vertex="1" parent="_VWqm0PzK80fMtdGOKL--13">
          <mxGeometry y="34" width="220" height="26" as="geometry" />
        </mxCell>
        <mxCell id="_VWqm0PzK80fMtdGOKL--17" value="JAVAFX" style="shape=folder;fontStyle=1;tabWidth=110;tabHeight=30;tabPosition=left;html=1;boundedLbl=1;labelInHeader=1;" vertex="1" parent="1">
          <mxGeometry x="60" y="-250" width="150" height="100" as="geometry" />
        </mxCell>
        <mxCell id="_VWqm0PzK80fMtdGOKL--18" value="media,control" style="html=1;" vertex="1" parent="_VWqm0PzK80fMtdGOKL--17">
          <mxGeometry width="110" height="30" relative="1" as="geometry">
            <mxPoint x="20" y="50" as="offset" />
          </mxGeometry>
        </mxCell>
        <mxCell id="_VWqm0PzK80fMtdGOKL--20" value="KeyboardInputHandler" style="swimlane;fontStyle=1;align=center;verticalAlign=top;childLayout=stackLayout;horizontal=1;startSize=26;horizontalStack=0;resizeParent=1;resizeParentMax=0;resizeLast=0;collapsible=1;marginBottom=0;" vertex="1" parent="1">
          <mxGeometry x="20" y="-10" width="310" height="210" as="geometry" />
        </mxCell>
        <mxCell id="_VWqm0PzK80fMtdGOKL--21" value="model: gameEngine{read only}&#xa;left = false: boolean&#xa;right = false: boolean&#xa;pressKey = new HashSet&lt;&gt;(): Set&lt;KeyCode&gt;&#xa;sounds = new HashMap&lt;&gt;(): Map&lt;String, MediaPlayer&gt;&#xa;" style="text;strokeColor=none;fillColor=none;align=left;verticalAlign=top;spacingLeft=4;spacingRight=4;overflow=hidden;rotatable=0;points=[[0,0.5],[1,0.5]];portConstraint=eastwest;" vertex="1" parent="_VWqm0PzK80fMtdGOKL--20">
          <mxGeometry y="26" width="310" height="104" as="geometry" />
        </mxCell>
        <mxCell id="_VWqm0PzK80fMtdGOKL--22" value="" style="line;strokeWidth=1;fillColor=none;align=left;verticalAlign=middle;spacingTop=-1;spacingLeft=3;spacingRight=3;rotatable=0;labelPosition=right;points=[];portConstraint=eastwest;" vertex="1" parent="_VWqm0PzK80fMtdGOKL--20">
          <mxGeometry y="130" width="310" height="20" as="geometry" />
        </mxCell>
        <mxCell id="_VWqm0PzK80fMtdGOKL--23" value="handlePressed(KeyEvent: KeyEvent)&#xa;handleReleased(KeyEvent: KeyEvent)" style="text;strokeColor=none;fillColor=none;align=left;verticalAlign=top;spacingLeft=4;spacingRight=4;overflow=hidden;rotatable=0;points=[[0,0.5],[1,0.5]];portConstraint=eastwest;" vertex="1" parent="_VWqm0PzK80fMtdGOKL--20">
          <mxGeometry y="150" width="310" height="60" as="geometry" />
        </mxCell>
        <mxCell id="_VWqm0PzK80fMtdGOKL--24" value="&lt;p style=&quot;margin: 0px ; margin-top: 4px ; text-align: center&quot;&gt;&lt;i&gt;&amp;lt;&amp;lt;Interface&amp;gt;&amp;gt;&lt;/i&gt;&lt;br&gt;&lt;b&gt;EntityView&lt;/b&gt;&lt;/p&gt;&lt;br&gt;&lt;hr size=&quot;1&quot;&gt;&lt;p style=&quot;margin: 0px ; margin-left: 4px&quot;&gt;update(xViewPort: double,&amp;nbsp;&lt;/p&gt;yViewPort: double): void&lt;br&gt;&lt;br&gt;matchesEntity(entity: Entity): boolean&lt;br&gt;MarkForDelete(): void&lt;br&gt;getNode(): Node&lt;br&gt;isMarkForDelete(): boolean&lt;br&gt;" style="verticalAlign=top;align=left;overflow=fill;fontSize=12;fontFamily=Helvetica;html=1;" vertex="1" parent="1">
          <mxGeometry x="700" y="500" width="210" height="160" as="geometry" />
        </mxCell>
        <mxCell id="_VWqm0PzK80fMtdGOKL--25" value="EntityViewImpl" style="swimlane;fontStyle=1;align=center;verticalAlign=top;childLayout=stackLayout;horizontal=1;startSize=26;horizontalStack=0;resizeParent=1;resizeParentMax=0;resizeLast=0;collapsible=1;marginBottom=0;" vertex="1" parent="1">
          <mxGeometry x="990" y="630" width="270" height="280" as="geometry" />
        </mxCell>
        <mxCell id="_VWqm0PzK80fMtdGOKL--26" value="entity: Entity&#xa;delete=false: boolean&#xa;node: ImageView&#xa;imagePath: String&#xa;" style="text;strokeColor=none;fillColor=none;align=left;verticalAlign=top;spacingLeft=4;spacingRight=4;overflow=hidden;rotatable=0;points=[[0,0.5],[1,0.5]];portConstraint=eastwest;" vertex="1" parent="_VWqm0PzK80fMtdGOKL--25">
          <mxGeometry y="26" width="270" height="74" as="geometry" />
        </mxCell>
        <mxCell id="_VWqm0PzK80fMtdGOKL--27" value="" style="line;strokeWidth=1;fillColor=none;align=left;verticalAlign=middle;spacingTop=-1;spacingLeft=3;spacingRight=3;rotatable=0;labelPosition=right;points=[];portConstraint=eastwest;" vertex="1" parent="_VWqm0PzK80fMtdGOKL--25">
          <mxGeometry y="100" width="270" height="8" as="geometry" />
        </mxCell>
        <mxCell id="_VWqm0PzK80fMtdGOKL--28" value="getViewOrder(layer: Entity.Layer): double&#xa; &#xa;update(xViewPort: double, yViewPort: double): void&#xa;&#xa;matchesEntity(entity: Entity): boolean&#xa;&#xa;MarkForDelete(): void&#xa;&#xa;getNode(): Node&#xa;&#xa;isMarkForDelete(): boolean" style="text;strokeColor=none;fillColor=none;align=left;verticalAlign=top;spacingLeft=4;spacingRight=4;overflow=hidden;rotatable=0;points=[[0,0.5],[1,0.5]];portConstraint=eastwest;" vertex="1" parent="_VWqm0PzK80fMtdGOKL--25">
          <mxGeometry y="108" width="270" height="172" as="geometry" />
        </mxCell>
        <mxCell id="_VWqm0PzK80fMtdGOKL--29" value="BlockBackground" style="html=1;overflow=block;whiteSpace=wrap;swimlane;childLayout=stackLayout;horizontal=1;horizontalStack=0;resizeParent=1;resizeParentMax=0;resizeLast=0;collapsible=0;marginBottom=0;swimlaneFillColor=#ffffff;startSize=25;whiteSpace=wrap;fontSize=11;fontColor=#333333;align=center;whiteSpace=wrap;align=left;spacing=0;strokeColor=#333333;strokeOpacity=100;fillOpacity=100;fillColor=#ffffff;" vertex="1" zOrder="166.66666666666663" parent="1">
          <mxGeometry x="1500" y="610" width="216" height="203.6" as="geometry" />
        </mxCell>
        <mxCell id="_VWqm0PzK80fMtdGOKL--30" value="&lt;div style=&quot;display: flex; justify-content: center; text-align: center; align-items: baseline; font-size: 0; line-height: 1;&quot;&gt;&lt;span&gt;&lt;span style=&quot;font-size:11px;color:#333333;&quot;&gt;sky: Rectangle&#xa;&lt;/span&gt;&lt;/span&gt;&lt;/div&gt;&lt;div style=&quot;display: flex; justify-content: center; text-align: center; align-items: baseline; font-size: 0; line-height: 1;&quot;&gt;&lt;span&gt;&lt;span style=&quot;font-size:11px;color:#333333;&quot;&gt;floor: Rectangle&#xa;&lt;/span&gt;&lt;/span&gt;&lt;/div&gt;&lt;div style=&quot;display: flex; justify-content: center; text-align: center; align-items: baseline; font-size: 0; line-height: 1;&quot;&gt;&lt;span&gt;&lt;span style=&quot;font-size:11px;color:#333333;&quot;&gt;pane: Pane&#xa;&lt;/span&gt;&lt;/span&gt;&lt;/div&gt;&lt;div style=&quot;display: flex; justify-content: center; text-align: center; align-items: baseline; font-size: 0; line-height: 1;&quot;&gt;&lt;span&gt;&lt;span style=&quot;font-size:11px;color:#333333;&quot;&gt;model: GameEngine&lt;/span&gt;&lt;/span&gt;&lt;/div&gt;" style="part=1;html=1;resizeHeight=0;strokeColor=none;fillColor=none;align=left;verticalAlign=middle;spacingLeft=4;spacingRight=4;overflow=hidden;rotatable=0;points=[[0,0.5],[1,0.5]];portConstraint=eastwest;swimlaneFillColor=#ffffff;strokeOpacity=100;fillOpacity=100;fontSize=11;fontColor=#333333;" vertex="1" parent="_VWqm0PzK80fMtdGOKL--29">
          <mxGeometry y="25" width="216" height="72" as="geometry" />
        </mxCell>
        <mxCell id="_VWqm0PzK80fMtdGOKL--31" value="" style="line;strokeWidth=1;fillColor=none;align=left;verticalAlign=middle;spacingTop=-1;spacingLeft=3;spacingRight=3;rotatable=0;labelPosition=right;points=[];portConstraint=eastwest;" vertex="1" parent="_VWqm0PzK80fMtdGOKL--29">
          <mxGeometry y="97" width="216" height="8" as="geometry" />
        </mxCell>
        <mxCell id="_VWqm0PzK80fMtdGOKL--32" value="&lt;div style=&quot;display: flex; justify-content: center; text-align: center; align-items: baseline; font-size: 0; line-height: 1;&quot;&gt;&lt;span&gt;&lt;span style=&quot;font-size:11px;color:#333333;&quot;&gt;draw(model: GameEngine, pane:Pane): void&#xa;&lt;/span&gt;&lt;/span&gt;&lt;/div&gt;&lt;div style=&quot;display: flex; justify-content: center; text-align: center; align-items: baseline; font-size: 0; line-height: 1;&quot;&gt;&lt;span&gt;&lt;span style=&quot;font-size:11px;color:#333333;&quot;&gt;update(xViewportOffset: double): void&lt;/span&gt;&lt;/span&gt;&lt;/div&gt;" style="part=1;html=1;resizeHeight=0;strokeColor=none;fillColor=none;align=left;verticalAlign=middle;spacingLeft=4;spacingRight=4;overflow=hidden;rotatable=0;points=[[0,0.5],[1,0.5]];portConstraint=eastwest;swimlaneFillColor=#ffffff;strokeOpacity=100;fillOpacity=100;fontSize=11;fontColor=#333333;" vertex="1" parent="_VWqm0PzK80fMtdGOKL--29">
          <mxGeometry y="105" width="216" height="98.6" as="geometry" />
        </mxCell>
        <mxCell id="_VWqm0PzK80fMtdGOKL--33" value="&amp;lt;&amp;lt;interface&amp;gt;&amp;gt;&#xa;BackgroundDrawer" style="html=1;overflow=block;whiteSpace=wrap;swimlane;childLayout=stackLayout;horizontal=1;horizontalStack=0;resizeParent=1;resizeParentMax=0;resizeLast=0;collapsible=0;marginBottom=0;swimlaneFillColor=#ffffff;startSize=25;whiteSpace=wrap;fontSize=11;fontStyle=1;whiteSpace=wrap;align=left;spacing=0;strokeColor=#333333;strokeOpacity=100;fillOpacity=100;fillColor=#ffffff;" vertex="1" zOrder="168.66666666666663" parent="1">
          <mxGeometry x="1250" y="335.4" width="180" height="158" as="geometry" />
        </mxCell>
        <mxCell id="_VWqm0PzK80fMtdGOKL--34" value="&lt;div style=&quot;display: flex; justify-content: center; text-align: center; align-items: baseline; font-size: 0; line-height: 1;&quot;&gt;&lt;span&gt;&lt;span style=&quot;font-size:11px;color:#333333;&quot;&gt;draw(model GameEngine, Pane pane): void&#xa;&lt;/span&gt;&lt;/span&gt;&lt;/div&gt;&lt;div style=&quot;display: flex; justify-content: center; text-align: center; align-items: baseline; font-size: 0; line-height: 1;&quot;&gt;&lt;span&gt;&lt;span style=&quot;font-size:11px;color:#333333;&quot;&gt;update(xViewportOffset: double): void&#xa;&lt;/span&gt;&lt;/span&gt;&lt;/div&gt;&lt;div style=&quot;display: flex; justify-content: center; text-align: center; align-items: baseline; font-size: 0; line-height: 1;&quot;&gt;&lt;span&gt;&lt;/span&gt;&lt;/div&gt;" style="part=1;html=1;resizeHeight=0;strokeColor=none;fillColor=none;align=left;verticalAlign=middle;spacingLeft=4;spacingRight=4;overflow=hidden;rotatable=0;points=[[0,0.5],[1,0.5]];portConstraint=eastwest;swimlaneFillColor=#ffffff;strokeOpacity=100;fillOpacity=100;fontSize=11;fontColor=#333333;" vertex="1" parent="_VWqm0PzK80fMtdGOKL--33">
          <mxGeometry y="25" width="180" height="133" as="geometry" />
        </mxCell>
        <mxCell id="_VWqm0PzK80fMtdGOKL--19" value="" style="endArrow=open;endFill=1;endSize=12;html=1;entryX=0;entryY=0;entryDx=150;entryDy=65;entryPerimeter=0;exitX=-0.007;exitY=-0.183;exitDx=0;exitDy=0;exitPerimeter=0;" edge="1" parent="1" source="_VWqm0PzK80fMtdGOKL--16" target="_VWqm0PzK80fMtdGOKL--17">
          <mxGeometry width="160" relative="1" as="geometry">
            <mxPoint x="509" y="-210" as="sourcePoint" />
            <mxPoint x="669" y="-210" as="targetPoint" />
          </mxGeometry>
        </mxCell>
        <mxCell id="_VWqm0PzK80fMtdGOKL--39" value="" style="endArrow=block;dashed=1;endFill=0;endSize=12;html=1;entryX=0.358;entryY=1;entryDx=0;entryDy=0;exitX=0.007;exitY=0.063;exitDx=0;exitDy=0;exitPerimeter=0;entryPerimeter=0;" edge="1" parent="1" source="_VWqm0PzK80fMtdGOKL--29" target="_VWqm0PzK80fMtdGOKL--34">
          <mxGeometry width="160" relative="1" as="geometry">
            <mxPoint x="680" y="710" as="sourcePoint" />
            <mxPoint x="840" y="710" as="targetPoint" />
          </mxGeometry>
        </mxCell>
        <mxCell id="_VWqm0PzK80fMtdGOKL--40" value="" style="endArrow=block;dashed=1;endFill=0;endSize=12;html=1;exitX=0.5;exitY=0;exitDx=0;exitDy=0;entryX=1.01;entryY=0.554;entryDx=0;entryDy=0;entryPerimeter=0;" edge="1" parent="1" source="_VWqm0PzK80fMtdGOKL--25" target="_VWqm0PzK80fMtdGOKL--24">
          <mxGeometry width="160" relative="1" as="geometry">
            <mxPoint x="1350" y="559.41" as="sourcePoint" />
            <mxPoint x="1510" y="559.41" as="targetPoint" />
          </mxGeometry>
        </mxCell>
        <mxCell id="_VWqm0PzK80fMtdGOKL--42" value="" style="endArrow=open;endFill=1;endSize=12;html=1;exitX=0.5;exitY=0;exitDx=0;exitDy=0;entryX=0.339;entryY=1.012;entryDx=0;entryDy=0;entryPerimeter=0;" edge="1" parent="1" source="_VWqm0PzK80fMtdGOKL--24" target="_VWqm0PzK80fMtdGOKL--4">
          <mxGeometry width="160" relative="1" as="geometry">
            <mxPoint x="950" y="510" as="sourcePoint" />
            <mxPoint x="1110" y="510" as="targetPoint" />
          </mxGeometry>
        </mxCell>
        <mxCell id="_VWqm0PzK80fMtdGOKL--45" value="" style="endArrow=open;endFill=1;endSize=12;html=1;exitX=0.5;exitY=0;exitDx=0;exitDy=0;entryX=1.01;entryY=0.363;entryDx=0;entryDy=0;entryPerimeter=0;" edge="1" parent="1" source="_VWqm0PzK80fMtdGOKL--33" target="_VWqm0PzK80fMtdGOKL--4">
          <mxGeometry width="160" relative="1" as="geometry">
            <mxPoint x="1290" y="300" as="sourcePoint" />
            <mxPoint x="1450" y="300" as="targetPoint" />
          </mxGeometry>
        </mxCell>
        <mxCell id="_VWqm0PzK80fMtdGOKL--46" value="" style="endArrow=block;startArrow=block;endFill=1;startFill=1;html=1;exitX=1.009;exitY=0.122;exitDx=0;exitDy=0;exitPerimeter=0;entryX=0;entryY=0.024;entryDx=0;entryDy=0;entryPerimeter=0;" edge="1" parent="1" source="_VWqm0PzK80fMtdGOKL--20" target="_VWqm0PzK80fMtdGOKL--5">
          <mxGeometry width="160" relative="1" as="geometry">
            <mxPoint x="340" y="240" as="sourcePoint" />
            <mxPoint x="430" y="240" as="targetPoint" />
          </mxGeometry>
        </mxCell>
        <mxCell id="_VWqm0PzK80fMtdGOKL--47" value="Classname" style="swimlane;fontStyle=0;childLayout=stackLayout;horizontal=1;startSize=26;fillColor=none;horizontalStack=0;resizeParent=1;resizeParentMax=0;resizeLast=0;collapsible=1;marginBottom=0;" vertex="1" parent="1">
          <mxGeometry x="590" y="730" width="140" height="104" as="geometry" />
        </mxCell>
        <mxCell id="_VWqm0PzK80fMtdGOKL--48" value="+ field: type" style="text;strokeColor=none;fillColor=none;align=left;verticalAlign=top;spacingLeft=4;spacingRight=4;overflow=hidden;rotatable=0;points=[[0,0.5],[1,0.5]];portConstraint=eastwest;" vertex="1" parent="_VWqm0PzK80fMtdGOKL--47">
          <mxGeometry y="26" width="140" height="26" as="geometry" />
        </mxCell>
        <mxCell id="_VWqm0PzK80fMtdGOKL--49" value="+ field: type" style="text;strokeColor=none;fillColor=none;align=left;verticalAlign=top;spacingLeft=4;spacingRight=4;overflow=hidden;rotatable=0;points=[[0,0.5],[1,0.5]];portConstraint=eastwest;" vertex="1" parent="_VWqm0PzK80fMtdGOKL--47">
          <mxGeometry y="52" width="140" height="26" as="geometry" />
        </mxCell>
        <mxCell id="_VWqm0PzK80fMtdGOKL--50" value="+ field: type" style="text;strokeColor=none;fillColor=none;align=left;verticalAlign=top;spacingLeft=4;spacingRight=4;overflow=hidden;rotatable=0;points=[[0,0.5],[1,0.5]];portConstraint=eastwest;" vertex="1" parent="_VWqm0PzK80fMtdGOKL--47">
          <mxGeometry y="78" width="140" height="26" as="geometry" />
        </mxCell>
      </root>
    </mxGraphModel>
  </diagram>
</mxfile>
